<svg width="500" height="300" viewBox="0 0 500 300" fill="none" xmlns="http://www.w3.org/2000/svg">
  <rect width="500" height="300" rx="16" fill="#F5F7FF"/>

  <!-- Charts Background -->
  <rect x="50" y="50" width="400" height="200" rx="12" fill="white"/>

  <!-- Header -->
  <rect x="70" y="70" width="120" height="20" rx="4" fill="#F0F4FF"/>
  <rect x="80" y="75" width="90" height="10" rx="5" fill="#3A55F2"/>

  <!-- Line Chart -->
  <rect x="70" y="110" width="160" height="120" rx="8" fill="#F0F4FF"/>
  <path d="M80 210C80 210 90.5 190 110 180C129.5 170 140 190 160 170C180 150 200 140 220 140" stroke="#3A55F2" stroke-width="3" stroke-linecap="round"/>
  <path d="M80 210H220" stroke="#151924" stroke-opacity="0.1"/>
  <path d="M80 170H220" stroke="#151924" stroke-opacity="0.1"/>
  <path d="M80 130H220" stroke="#151924" stroke-opacity="0.1"/>
  <circle cx="110" cy="180" r="4" fill="#3A55F2"/>
  <circle cx="160" cy="170" r="4" fill="#3A55F2"/>
  <circle cx="220" cy="140" r="4" fill="#3A55F2"/>

  <!-- Bar Chart -->
  <rect x="250" y="110" width="160" height="120" rx="8" fill="#F0F4FF"/>
  <rect x="270" y="170" width="20" height="40" rx="4" fill="#3A55F2"/>
  <rect x="300" y="150" width="20" height="60" rx="4" fill="#788BFF"/>
  <rect x="330" y="130" width="20" height="80" rx="4" fill="#3A55F2"/>
  <rect x="360" y="180" width="20" height="30" rx="4" fill="#788BFF"/>
  <path d="M260 210H410" stroke="#151924" stroke-opacity="0.1"/>

  <!-- Bottom Metrics -->
  <rect x="70" y="240" width="110" height="40" rx="8" fill="#F0F4FF"/>
  <rect x="90" y="250" width="50" height="20" rx="4" fill="#3A55F2" fill-opacity="0.1"/>
  <rect x="95" y="255" width="40" height="10" rx="5" fill="#3A55F2"/>

  <rect x="190" y="240" width="110" height="40" rx="8" fill="#F0F4FF"/>
  <rect x="210" y="250" width="50" height="20" rx="4" fill="#788BFF" fill-opacity="0.1"/>
  <rect x="215" y="255" width="40" height="10" rx="5" fill="#788BFF"/>

  <rect x="310" y="240" width="110" height="40" rx="8" fill="#F0F4FF"/>
  <rect x="330" y="250" width="50" height="20" rx="4" fill="#3A55F2" fill-opacity="0.1"/>
  <rect x="335" y="255" width="40" height="10" rx="5" fill="#3A55F2"/>
</svg>
