<svg width="500" height="300" viewBox="0 0 500 300" fill="none" xmlns="http://www.w3.org/2000/svg">
  <rect width="500" height="300" rx="16" fill="#F5F7FF"/>
  <rect x="50" y="50" width="400" height="200" rx="12" fill="white"/>

  <rect x="80" y="80" width="180" height="30" rx="6" fill="#F0F4FF"/>
  <rect x="90" y="90" width="100" height="10" rx="5" fill="#3A55F2"/>

  <rect x="80" y="130" width="340" height="40" rx="8" fill="#F0F4FF"/>
  <rect x="90" y="145" width="250" height="10" rx="5" fill="#151924" fill-opacity="0.1"/>

  <rect x="80" y="190" width="340" height="40" rx="8" fill="#3A55F2"/>
  <rect x="200" y="205" width="100" height="10" rx="5" fill="white"/>

  <circle cx="405" cy="80" r="15" fill="#788BFF"/>
  <path d="M405 75V85M400 80H410" stroke="white" stroke-width="2" stroke-linecap="round"/>

  <circle cx="375" cy="80" r="15" fill="#F0F4FF"/>
  <path d="M375 75V85" stroke="#788BFF" stroke-width="2" stroke-linecap="round"/>

  <circle cx="345" cy="80" r="15" fill="#F0F4FF"/>
  <path d="M340 80H350" stroke="#788BFF" stroke-width="2" stroke-linecap="round"/>
</svg>
