<svg width="600" height="400" viewBox="0 0 600 400" fill="none" xmlns="http://www.w3.org/2000/svg">
  <rect width="600" height="400" rx="16" fill="#F5F7FF"/>
  <rect x="20" y="20" width="560" height="40" rx="8" fill="#FFFFFF"/>
  <rect x="40" y="35" width="120" height="10" rx="5" fill="#3A55F2"/>
  <rect x="440" y="35" width="60" height="10" rx="5" fill="#788BFF"/>
  <rect x="510" y="35" width="50" height="10" rx="5" fill="#788BFF"/>

  <rect x="20" y="80" width="300" height="300" rx="8" fill="#FFFFFF"/>
  <rect x="40" y="100" width="100" height="20" rx="4" fill="#F0F4FF"/>
  <rect x="40" y="140" width="260" height="10" rx="5" fill="#151924" fill-opacity="0.1"/>
  <rect x="40" y="160" width="200" height="10" rx="5" fill="#151924" fill-opacity="0.1"/>
  <rect x="40" y="180" width="240" height="10" rx="5" fill="#151924" fill-opacity="0.1"/>

  <rect x="40" y="210" width="260" height="50" rx="8" fill="#F0F4FF"/>
  <rect x="60" y="230" width="80" height="10" rx="5" fill="#3A55F2"/>
  <rect x="200" y="230" width="80" height="10" rx="5" fill="#788BFF"/>

  <rect x="40" y="280" width="260" height="80" rx="8" fill="#F0F4FF"/>
  <rect x="60" y="300" width="60" height="10" rx="5" fill="#3A55F2"/>
  <rect x="60" y="330" width="220" height="10" rx="5" fill="#788BFF"/>

  <rect x="340" y="80" width="240" height="140" rx="8" fill="#FFFFFF"/>
  <rect x="360" y="100" width="80" height="20" rx="4" fill="#F0F4FF"/>
  <path d="M360 150H560" stroke="#151924" stroke-opacity="0.1" stroke-dasharray="4 4"/>
  <path d="M360 180H560" stroke="#151924" stroke-opacity="0.1" stroke-dasharray="4 4"/>
  <rect x="380" y="140" width="40" height="60" rx="4" fill="#3A55F2"/>
  <rect x="430" y="160" width="40" height="40" rx="4" fill="#788BFF"/>
  <rect x="480" y="130" width="40" height="70" rx="4" fill="#3A55F2"/>
  <rect x="530" y="150" width="40" height="50" rx="4" fill="#788BFF"/>

  <rect x="340" y="240" width="240" height="140" rx="8" fill="#FFFFFF"/>
  <circle cx="430" cy="310" r="70" fill="#F0F4FF"/>
  <path d="M430 240V310H500" stroke="#3A55F2" stroke-width="20" stroke-linecap="round"/>
  <path d="M430 310H380" stroke="#788BFF" stroke-width="20" stroke-linecap="round"/>
</svg>
