<svg width="24" height="24" viewBox="0 0 24 24" fill="none" xmlns="http://www.w3.org/2000/svg">
  <path d="M20 12V22L16 18L12 22L8 18L4 22V12" stroke="#3A55F2" stroke-width="2" stroke-linecap="round" stroke-linejoin="round"/>
  <path d="M2 8C2 8 4.667 3 12 3C19.333 3 22 8 22 8" stroke="#3A55F2" stroke-width="2" stroke-linecap="round" stroke-linejoin="round"/>
  <path d="M9 11C10.1046 11 11 10.1046 11 9C11 7.89543 10.1046 7 9 7C7.89543 7 7 7.89543 7 9C7 10.1046 7.89543 11 9 11Z" stroke="#3A55F2" stroke-width="2" stroke-linecap="round" stroke-linejoin="round"/>
  <path d="M15 11C16.1046 11 17 10.1046 17 9C17 7.89543 16.1046 7 15 7C13.8954 7 13 7.89543 13 9C13 10.1046 13.8954 11 15 11Z" stroke="#3A55F2" stroke-width="2" stroke-linecap="round" stroke-linejoin="round"/>
</svg>
