<svg width="20" height="20" viewBox="0 0 20 20" fill="none" xmlns="http://www.w3.org/2000/svg">
  <path d="M13.3333 6.66667C14.2174 6.66667 15.0652 7.01786 15.6904 7.64298C16.3155 8.2681 16.6667 9.11594 16.6667 10V16.6667H13.3333V10C13.3333 9.55797 13.1577 9.13405 12.8452 8.82149C12.5326 8.50893 12.1087 8.33333 11.6667 8.33333C11.2246 8.33333 10.8007 8.50893 10.4882 8.82149C10.1756 9.13405 10 9.55797 10 10V16.6667H6.66667V10C6.66667 9.11594 7.01786 8.2681 7.64298 7.64298C8.2681 7.01786 9.11594 6.66667 10 6.66667H13.3333Z" stroke="white" stroke-width="1.5" stroke-linecap="round" stroke-linejoin="round"/>
  <path d="M3.33333 7.5H6.66667V16.6667H3.33333V7.5Z" stroke="white" stroke-width="1.5" stroke-linecap="round" stroke-linejoin="round"/>
  <path d="M5 5C5.92047 5 6.66667 4.2538 6.66667 3.33333C6.66667 2.41286 5.92047 1.66667 5 1.66667C4.07953 1.66667 3.33333 2.41286 3.33333 3.33333C3.33333 4.2538 4.07953 5 5 5Z" stroke="white" stroke-width="1.5" stroke-linecap="round" stroke-linejoin="round"/>
</svg>
