<svg width="16" height="16" viewBox="0 0 16 16" fill="none" xmlns="http://www.w3.org/2000/svg">
<path d="M7.99967 8.66667C8.36786 8.66667 8.66634 8.36819 8.66634 8.00001C8.66634 7.63182 8.36786 7.33334 7.99967 7.33334C7.63148 7.33334 7.33301 7.63182 7.33301 8.00001C7.33301 8.36819 7.63148 8.66667 7.99967 8.66667Z" fill="#788BFF"/>
<path d="M7.99967 1.33334C5.05967 1.33334 2.66634 3.72668 2.66634 6.66668C2.66634 10.1333 7.39967 14.3333 7.65301 14.5533C7.79367 14.6733 7.89967 14.6667 7.99967 14.6667C8.10634 14.6667 8.20634 14.68 8.34634 14.5533C8.60634 14.3333 13.333 10.1333 13.333 6.66668C13.333 3.72668 10.9397 1.33334 7.99967 1.33334ZM7.99967 9.66668C6.92634 9.66668 6.06634 8.80668 6.06634 8.00001C6.06634 7.19334 6.92634 6.33334 7.99967 6.33334C9.07301 6.33334 9.93301 7.19334 9.93301 8.00001C9.93301 8.80668 9.07301 9.66668 7.99967 9.66668Z" fill="#788BFF"/>
</svg>
