<svg width="120" height="32" viewBox="0 0 120 32" fill="none" xmlns="http://www.w3.org/2000/svg">
  <path d="M8.10693 10.6156C4.16446 14.5581 4.16446 20.9569 8.10693 24.8994C12.0494 28.8419 18.4482 28.8419 22.3907 24.8994C26.3331 20.9569 26.3331 14.5581 22.3907 10.6156" stroke="#3A55F2" stroke-width="3" stroke-linecap="round" stroke-linejoin="round"/>
  <path d="M15.2488 25.6841V17.7575" stroke="#3A55F2" stroke-width="3" stroke-linecap="round" stroke-linejoin="round"/>
  <path d="M15.2488 8.3575V6.31575" stroke="#3A55F2" stroke-width="3" stroke-linecap="round" stroke-linejoin="round"/>
  <path d="M15.2488 17.7575C16.7216 17.7575 17.9113 16.5679 17.9113 15.095C17.9113 13.6222 16.7216 12.4326 15.2488 12.4326C13.776 12.4326 12.5863 13.6222 12.5863 15.095C12.5863 16.5679 13.776 17.7575 15.2488 17.7575Z" fill="#3A55F2"/>
  <path d="M37.9707 24.6694V7.25562H42.6387V20.6311H49.5394V24.6694H37.9707Z" fill="#151924"/>
  <path d="M52.1416 24.6694V11.2939H56.6071V24.6694H52.1416ZM54.3744 9.46114C53.6245 9.46114 52.9995 9.24291 52.4995 8.80644C51.9995 8.35735 51.7495 7.80109 51.7495 7.13767C51.7495 6.47426 51.9995 5.92426 52.4995 5.48779C52.9995 5.03871 53.6245 4.81417 54.3744 4.81417C55.1243 4.81417 55.7493 5.0262 56.2493 5.45025C56.7493 5.8743 56.9993 6.42588 56.9993 7.105C56.9993 7.8032 56.7493 8.37198 56.2493 8.81134C55.7493 9.25121 55.1243 9.46114 54.3744 9.46114Z" fill="#151924"/>
  <path d="M65.9657 24.97C64.24 24.97 62.7736 24.6531 61.5664 24.0192C60.3592 23.3853 59.4453 22.5133 58.8247 21.4032C58.2041 20.2932 57.8939 19.0328 57.8939 17.6222C57.8939 16.2115 58.2041 14.9512 58.8247 13.8411C59.4453 12.731 60.374 11.8716 61.6109 11.2627C62.8477 10.6538 64.3463 10.3494 66.1067 10.3494C67.3288 10.3494 68.4361 10.5209 69.4287 10.864C70.4212 11.2071 71.2692 11.6937 71.9726 12.3238C72.676 12.9538 73.2225 13.6919 73.6123 14.5381C74.002 15.3843 74.1969 16.3089 74.1969 17.3121V18.6785H59.6807V16.1551H70.0537C70.0537 15.5685 69.9178 15.0557 69.6461 14.6166C69.3744 14.1776 68.9994 13.8349 68.5209 13.5886C68.0424 13.3422 67.4902 13.219 66.8644 13.219C66.2087 13.219 65.629 13.3547 65.1257 13.626C64.6224 13.8973 64.2289 14.2651 63.9454 14.7291C63.6618 15.1932 63.5176 15.7185 63.5128 16.3051V18.5273C63.5128 19.2509 63.6507 19.8732 63.9267 20.3936C64.2025 20.9142 64.5986 21.3138 65.1149 21.5927C65.6311 21.8716 66.2529 22.0111 66.9801 22.0111C67.4538 22.0111 67.8858 21.9504 68.2756 21.8291C68.6651 21.7079 68.9994 21.5259 69.2785 21.2845C69.5573 21.043 69.7633 20.7474 69.8968 20.3979L74.0457 20.6394C73.8578 21.4856 73.4819 22.2251 72.918 22.8578C72.3541 23.4905 71.628 23.981 70.7395 24.3293C69.8509 24.6775 68.8016 24.97 67.5919 24.97H65.9657Z" fill="#151924"/>
  <path d="M76.6881 24.6694V11.2939H81.0016V13.7628H81.1528C81.4316 12.8598 81.8774 12.1759 82.4901 11.7119C83.1027 11.2478 83.8098 11.0158 84.6115 11.0158C84.8382 11.0158 85.0794 11.0345 85.3336 11.0721C85.5878 11.1097 85.8146 11.1597 86.0142 11.222V15.1308C85.7954 15.0557 85.5014 14.9932 85.1324 14.9431C84.7634 14.8931 84.4265 14.8681 84.122 14.8681C83.548 14.8681 83.0336 14.9869 82.5786 15.2244C82.1236 15.462 81.7609 15.8018 81.4904 16.2427C81.2199 16.6837 81.0846 17.2084 81.0846 17.8169V24.6694H76.6881Z" fill="#151924"/>
  <path d="M94.8796 11.2939V14.7106H86.4316V11.2939H94.8796ZM88.318 7.97499H92.7146V20.2903C92.7146 20.643 92.7713 20.9143 92.8849 21.104C92.9984 21.2938 93.1555 21.4214 93.3561 21.4868C93.5568 21.5521 93.7936 21.5848 94.0673 21.5848C94.2579 21.5848 94.4536 21.5698 94.6549 21.5396C94.8562 21.5097 95.0113 21.4837 95.1203 21.4618L95.8219 24.8484C95.594 24.9137 95.2803 24.9857 94.8806 25.0651C94.4811 25.1443 93.9962 25.1902 93.4263 25.2028C92.3565 25.2265 91.4252 25.0903 90.6323 24.7945C89.8395 24.4988 89.2229 24.0386 88.7826 23.4142C88.3423 22.7897 88.1237 21.9976 88.1272 21.038V7.97499H88.318Z" fill="#151924"/>
  <path d="M96.6471 24.6694V11.2939H101.044V24.6694H96.6471ZM98.8799 9.46114C98.1301 9.46114 97.5051 9.24291 97.0051 8.80644C96.5051 8.35735 96.2551 7.80109 96.2551 7.13767C96.2551 6.47426 96.5051 5.92426 97.0051 5.48779C97.5051 5.03871 98.1301 4.81417 98.8799 4.81417C99.6299 4.81417 100.255 5.0262 100.755 5.45025C101.255 5.8743 101.505 6.42588 101.505 7.105C101.505 7.8032 101.255 8.37198 100.755 8.81134C100.255 9.25121 99.6299 9.46114 98.8799 9.46114Z" fill="#151924"/>
  <path d="M110.518 24.97C109.124 24.97 107.895 24.6537 106.832 24.0211C105.768 23.3886 104.932 22.518 104.325 21.4093C103.718 20.3006 103.414 19.039 103.414 17.6222C103.414 16.1926 103.721 14.9267 104.336 13.8224C104.95 12.7182 105.793 11.8532 106.864 11.2282C107.934 10.6032 109.152 10.2908 110.518 10.2908C111.669 10.2908 112.675 10.5034 113.536 10.9287C114.397 11.354 115.085 11.9543 115.602 12.7294C116.118 13.5046 116.413 14.4202 116.488 15.4762H112.318C112.199 14.8332 111.932 14.3159 111.519 13.9242C111.106 13.5326 110.566 13.3367 109.897 13.3367C109.344 13.3367 108.856 13.4857 108.431 13.7834C108.005 14.0812 107.672 14.5132 107.431 15.0794C107.19 15.6458 107.069 16.3407 107.069 17.1645C107.069 17.9882 107.188 18.6844 107.425 19.2524C107.662 19.8205 107.995 20.2538 108.425 20.5523C108.855 20.8508 109.344 20.9998 109.897 20.9998C110.328 20.9998 110.715 20.9173 111.062 20.7523C111.407 20.5872 111.697 20.3472 111.932 20.0323C112.167 19.7174 112.324 19.3413 112.404 18.9041H116.574C116.494 19.9426 116.201 20.8558 115.694 21.6435C115.186 22.4311 114.507 23.0394 113.658 23.4683C112.809 24.1577 111.757 24.97 110.518 24.97Z" fill="#151924"/>
</svg>
